<mxfile host="app.diagrams.net" modified="2023-04-18T21:34:12.819Z" agent="Mozilla/5.0 (Windows NT 10.0; Win64; x64) AppleWebKit/537.36 (KHTML, like Gecko) Chrome/111.0.0.0 Safari/537.36" etag="5jOvXY8u0amzTXiErUZ3" version="21.1.7" type="github">
  <diagram name="Página-1" id="fLmBTzo-LLOZFLIb12Rz">
    <mxGraphModel dx="880" dy="484" grid="1" gridSize="10" guides="1" tooltips="1" connect="1" arrows="1" fold="1" page="1" pageScale="1" pageWidth="827" pageHeight="1169" math="0" shadow="0">
      <root>
        <mxCell id="0" />
        <mxCell id="1" parent="0" />
        <mxCell id="4b8C5Z-WS3x3jiGMZM_m-4" value="Dono" style="shape=umlActor;verticalLabelPosition=bottom;verticalAlign=top;html=1;outlineConnect=0;" vertex="1" parent="1">
          <mxGeometry x="270" y="220" width="30" height="60" as="geometry" />
        </mxCell>
        <mxCell id="4b8C5Z-WS3x3jiGMZM_m-5" value="Controlar Cursos" style="ellipse;whiteSpace=wrap;html=1;" vertex="1" parent="1">
          <mxGeometry x="414" y="90" width="120" height="80" as="geometry" />
        </mxCell>
        <mxCell id="4b8C5Z-WS3x3jiGMZM_m-6" value="Controlar Cadastro De Professores" style="ellipse;whiteSpace=wrap;html=1;" vertex="1" parent="1">
          <mxGeometry x="414" y="330" width="120" height="80" as="geometry" />
        </mxCell>
        <mxCell id="4b8C5Z-WS3x3jiGMZM_m-7" value="Controlar Dados e Horários" style="ellipse;whiteSpace=wrap;html=1;" vertex="1" parent="1">
          <mxGeometry x="414" y="210" width="120" height="80" as="geometry" />
        </mxCell>
        <mxCell id="4b8C5Z-WS3x3jiGMZM_m-8" value="Oferecer Cursos" style="ellipse;whiteSpace=wrap;html=1;" vertex="1" parent="1">
          <mxGeometry x="590" y="210" width="120" height="80" as="geometry" />
        </mxCell>
        <mxCell id="4b8C5Z-WS3x3jiGMZM_m-9" value="" style="endArrow=classic;html=1;rounded=0;entryX=0.067;entryY=0.775;entryDx=0;entryDy=0;entryPerimeter=0;" edge="1" parent="1" source="4b8C5Z-WS3x3jiGMZM_m-4" target="4b8C5Z-WS3x3jiGMZM_m-5">
          <mxGeometry width="50" height="50" relative="1" as="geometry">
            <mxPoint x="-40" y="270" as="sourcePoint" />
            <mxPoint x="10" y="220" as="targetPoint" />
          </mxGeometry>
        </mxCell>
        <mxCell id="4b8C5Z-WS3x3jiGMZM_m-10" value="" style="endArrow=classic;html=1;rounded=0;" edge="1" parent="1" source="4b8C5Z-WS3x3jiGMZM_m-4">
          <mxGeometry width="50" height="50" relative="1" as="geometry">
            <mxPoint x="-40" y="270" as="sourcePoint" />
            <mxPoint x="410" y="250" as="targetPoint" />
          </mxGeometry>
        </mxCell>
        <mxCell id="4b8C5Z-WS3x3jiGMZM_m-11" value="" style="endArrow=classic;html=1;rounded=0;exitX=1;exitY=1;exitDx=0;exitDy=0;exitPerimeter=0;entryX=0.083;entryY=0.238;entryDx=0;entryDy=0;entryPerimeter=0;" edge="1" parent="1" source="4b8C5Z-WS3x3jiGMZM_m-4" target="4b8C5Z-WS3x3jiGMZM_m-6">
          <mxGeometry width="50" height="50" relative="1" as="geometry">
            <mxPoint x="-40" y="270" as="sourcePoint" />
            <mxPoint x="10" y="220" as="targetPoint" />
          </mxGeometry>
        </mxCell>
      </root>
    </mxGraphModel>
  </diagram>
</mxfile>
